<svg width="68" height="26" viewBox="0 0 68 26" fill="none" xmlns="http://www.w3.org/2000/svg">
<path d="M1.54 5H3.14V9.98H3.22C3.52667 9.59333 3.91333 9.29333 4.38 9.08C4.86 8.86667 5.38 8.76 5.94 8.76C7.23333 8.76 8.2 9.17333 8.84 10C9.49333 10.8267 9.82 12.1067 9.82 13.84C9.82 15.5867 9.39333 16.9133 8.54 17.82C7.68667 18.7267 6.48667 19.18 4.94 19.18C4.19333 19.18 3.51333 19.1 2.9 18.94C2.3 18.78 1.84667 18.6067 1.54 18.42V5ZM5.66 10.16C4.99333 10.16 4.45333 10.3467 4.04 10.72C3.62667 11.0933 3.32667 11.62 3.14 12.3V17.34C3.39333 17.4867 3.7 17.6 4.06 17.68C4.42 17.7467 4.79333 17.78 5.18 17.78C6.08667 17.78 6.80667 17.46 7.34 16.82C7.88667 16.18 8.16 15.18 8.16 13.82C8.16 13.3 8.11333 12.8133 8.02 12.36C7.92667 11.9067 7.78 11.52 7.58 11.2C7.38 10.88 7.12 10.6267 6.8 10.44C6.49333 10.2533 6.11333 10.16 5.66 10.16ZM10.3808 9.74C10.8874 9.43333 11.4741 9.20667 12.1408 9.06C12.8208 8.91333 13.5274 8.84 14.2608 8.84C14.9541 8.84 15.5074 8.93333 15.9208 9.12C16.3474 9.30667 16.6674 9.55333 16.8808 9.86C17.1074 10.1533 17.2541 10.48 17.3208 10.84C17.4008 11.2 17.4408 11.56 17.4408 11.92C17.4408 12.72 17.4208 13.5 17.3808 14.26C17.3408 15.02 17.3208 15.74 17.3208 16.42C17.3208 16.9133 17.3408 17.38 17.3808 17.82C17.4208 18.26 17.4941 18.6667 17.6008 19.04H16.4208L16.0008 17.64H15.9008C15.7808 17.8267 15.6274 18.0133 15.4408 18.2C15.2674 18.3733 15.0541 18.5333 14.8008 18.68C14.5474 18.8133 14.2541 18.9267 13.9208 19.02C13.5874 19.1133 13.2074 19.16 12.7808 19.16C12.3541 19.16 11.9541 19.0933 11.5808 18.96C11.2208 18.8267 10.9074 18.64 10.6408 18.4C10.3741 18.1467 10.1608 17.8467 10.0008 17.5C9.85411 17.1533 9.78078 16.76 9.78078 16.32C9.78078 15.7333 9.90078 15.2467 10.1408 14.86C10.3808 14.46 10.7141 14.1467 11.1408 13.92C11.5808 13.68 12.1008 13.5133 12.7008 13.42C13.3141 13.3133 13.9874 13.26 14.7208 13.26C14.9074 13.26 15.0874 13.26 15.2608 13.26C15.4474 13.26 15.6341 13.2733 15.8208 13.3C15.8608 12.9 15.8808 12.54 15.8808 12.22C15.8808 11.4867 15.7341 10.9733 15.4408 10.68C15.1474 10.3867 14.6141 10.24 13.8408 10.24C13.6141 10.24 13.3674 10.26 13.1008 10.3C12.8474 10.3267 12.5808 10.3733 12.3008 10.44C12.0341 10.4933 11.7741 10.5667 11.5208 10.66C11.2808 10.74 11.0674 10.8333 10.8808 10.94L10.3808 9.74ZM13.2208 17.76C13.5941 17.76 13.9274 17.7133 14.2208 17.62C14.5141 17.5133 14.7674 17.3867 14.9808 17.24C15.1941 17.08 15.3674 16.9067 15.5008 16.72C15.6474 16.5333 15.7541 16.3533 15.8208 16.18V14.52C15.6341 14.5067 15.4408 14.5 15.2408 14.5C15.0541 14.4867 14.8674 14.48 14.6808 14.48C14.2674 14.48 13.8608 14.5067 13.4608 14.56C13.0741 14.6 12.7274 14.6867 12.4208 14.82C12.1274 14.94 11.8874 15.1133 11.7008 15.34C11.5274 15.5533 11.4408 15.8267 11.4408 16.16C11.4408 16.6267 11.6074 17.0133 11.9408 17.32C12.2741 17.6133 12.7008 17.76 13.2208 17.76ZM25.0827 19V13.3C25.0827 12.26 24.9293 11.48 24.6227 10.96C24.3293 10.4267 23.7827 10.16 22.9827 10.16C22.276 10.16 21.6893 10.3533 21.2227 10.74C20.7693 11.1133 20.4493 11.5867 20.2627 12.16V19H18.6627V9H19.7827L20.0827 10.22H20.1627C20.4827 9.79333 20.9093 9.44667 21.4427 9.18C21.9893 8.9 22.636 8.76 23.3827 8.76C23.9293 8.76 24.4093 8.82667 24.8227 8.96C25.236 9.08 25.576 9.3 25.8427 9.62C26.1227 9.94 26.3293 10.3733 26.4627 10.92C26.6093 11.4533 26.6827 12.1333 26.6827 12.96V19H25.0827ZM29.9202 9H31.5202V19.54C31.5202 20.78 31.3068 21.7067 30.8802 22.32C30.4535 22.9333 29.7735 23.24 28.8402 23.24C28.7335 23.24 28.6335 23.2333 28.5402 23.22C28.4468 23.22 28.3468 23.2133 28.2402 23.2V21.84C28.6135 21.84 28.9068 21.78 29.1202 21.66C29.3468 21.5533 29.5202 21.38 29.6402 21.14C29.7602 20.9 29.8335 20.5933 29.8602 20.22C29.9002 19.86 29.9202 19.4333 29.9202 18.94V9ZM29.5802 5.96C29.5802 5.65333 29.6802 5.39333 29.8802 5.18C30.0935 4.95333 30.3602 4.84 30.6802 4.84C31.0002 4.84 31.2735 4.95333 31.5002 5.18C31.7268 5.39333 31.8402 5.65333 31.8402 5.96C31.8402 6.26667 31.7268 6.52 31.5002 6.72C31.2735 6.92 31.0002 7.02 30.6802 7.02C30.3602 7.02 30.0935 6.92 29.8802 6.72C29.6802 6.52 29.5802 6.26667 29.5802 5.96ZM32.9722 9.74C33.4789 9.43333 34.0655 9.20667 34.7322 9.06C35.4122 8.91333 36.1189 8.84 36.8522 8.84C37.5455 8.84 38.0989 8.93333 38.5122 9.12C38.9389 9.30667 39.2589 9.55333 39.4722 9.86C39.6989 10.1533 39.8455 10.48 39.9122 10.84C39.9922 11.2 40.0322 11.56 40.0322 11.92C40.0322 12.72 40.0122 13.5 39.9722 14.26C39.9322 15.02 39.9122 15.74 39.9122 16.42C39.9122 16.9133 39.9322 17.38 39.9722 17.82C40.0122 18.26 40.0855 18.6667 40.1922 19.04H39.0122L38.5922 17.64H38.4922C38.3722 17.8267 38.2189 18.0133 38.0322 18.2C37.8589 18.3733 37.6455 18.5333 37.3922 18.68C37.1389 18.8133 36.8455 18.9267 36.5122 19.02C36.1789 19.1133 35.7989 19.16 35.3722 19.16C34.9455 19.16 34.5455 19.0933 34.1722 18.96C33.8122 18.8267 33.4989 18.64 33.2322 18.4C32.9655 18.1467 32.7522 17.8467 32.5922 17.5C32.4455 17.1533 32.3722 16.76 32.3722 16.32C32.3722 15.7333 32.4922 15.2467 32.7322 14.86C32.9722 14.46 33.3055 14.1467 33.7322 13.92C34.1722 13.68 34.6922 13.5133 35.2922 13.42C35.9055 13.3133 36.5789 13.26 37.3122 13.26C37.4989 13.26 37.6789 13.26 37.8522 13.26C38.0389 13.26 38.2255 13.2733 38.4122 13.3C38.4522 12.9 38.4722 12.54 38.4722 12.22C38.4722 11.4867 38.3255 10.9733 38.0322 10.68C37.7389 10.3867 37.2055 10.24 36.4322 10.24C36.2055 10.24 35.9589 10.26 35.6922 10.3C35.4389 10.3267 35.1722 10.3733 34.8922 10.44C34.6255 10.4933 34.3655 10.5667 34.1122 10.66C33.8722 10.74 33.6589 10.8333 33.4722 10.94L32.9722 9.74ZM35.8122 17.76C36.1855 17.76 36.5189 17.7133 36.8122 17.62C37.1055 17.5133 37.3589 17.3867 37.5722 17.24C37.7855 17.08 37.9589 16.9067 38.0922 16.72C38.2389 16.5333 38.3455 16.3533 38.4122 16.18V14.52C38.2255 14.5067 38.0322 14.5 37.8322 14.5C37.6455 14.4867 37.4589 14.48 37.2722 14.48C36.8589 14.48 36.4522 14.5067 36.0522 14.56C35.6655 14.6 35.3189 14.6867 35.0122 14.82C34.7189 14.94 34.4789 15.1133 34.2922 15.34C34.1189 15.5533 34.0322 15.8267 34.0322 16.16C34.0322 16.6267 34.1989 17.0133 34.5322 17.32C34.8655 17.6133 35.2922 17.76 35.8122 17.76Z" fill="black"/>
<path d="M42.84 17.68C42.84 17.2133 42.9867 16.8467 43.28 16.58C43.5733 16.3 43.96 16.16 44.44 16.16C44.9467 16.16 45.3467 16.3 45.64 16.58C45.9333 16.8467 46.08 17.2133 46.08 17.68C46.08 18.1467 45.9333 18.52 45.64 18.8C45.3467 19.08 44.9467 19.22 44.44 19.22C43.96 19.22 43.5733 19.08 43.28 18.8C42.9867 18.52 42.84 18.1467 42.84 17.68ZM48.3925 9.58C48.9258 9.34 49.5592 9.15333 50.2925 9.02C51.0258 8.87333 51.7925 8.8 52.5925 8.8C53.2858 8.8 53.8658 8.88667 54.3325 9.06C54.7992 9.22 55.1658 9.45333 55.4325 9.76C55.7125 10.0667 55.9058 10.4333 56.0125 10.86C56.1325 11.2867 56.1925 11.7667 56.1925 12.3C56.1925 12.8867 56.1725 13.48 56.1325 14.08C56.0925 14.6667 56.0658 15.2467 56.0525 15.82C56.0525 16.3933 56.0725 16.9533 56.1125 17.5C56.1525 18.0333 56.2525 18.54 56.4125 19.02H54.2925L53.8725 17.64H53.7725C53.5058 18.0533 53.1325 18.4133 52.6525 18.72C52.1858 19.0133 51.5792 19.16 50.8325 19.16C50.3658 19.16 49.9458 19.0933 49.5725 18.96C49.1992 18.8133 48.8792 18.6133 48.6125 18.36C48.3458 18.0933 48.1392 17.7867 47.9925 17.44C47.8458 17.08 47.7725 16.68 47.7725 16.24C47.7725 15.6267 47.9058 15.1133 48.1725 14.7C48.4525 14.2733 48.8458 13.9333 49.3525 13.68C49.8725 13.4133 50.4858 13.2333 51.1925 13.14C51.9125 13.0333 52.7125 13 53.5925 13.04C53.6858 12.2933 53.6325 11.76 53.4325 11.44C53.2325 11.1067 52.7858 10.94 52.0925 10.94C51.5725 10.94 51.0192 10.9933 50.4325 11.1C49.8592 11.2067 49.3858 11.3467 49.0125 11.52L48.3925 9.58ZM51.6925 17.02C52.2125 17.02 52.6258 16.9067 52.9325 16.68C53.2392 16.44 53.4658 16.1867 53.6125 15.92V14.62C53.1992 14.58 52.7992 14.5733 52.4125 14.6C52.0392 14.6267 51.7058 14.6867 51.4125 14.78C51.1192 14.8733 50.8858 15.0067 50.7125 15.18C50.5392 15.3533 50.4525 15.5733 50.4525 15.84C50.4525 16.2133 50.5592 16.5067 50.7725 16.72C50.9992 16.92 51.3058 17.02 51.6925 17.02ZM60.8744 9V14.68C60.8744 15.4933 60.9677 16.08 61.1544 16.44C61.3544 16.8 61.7344 16.98 62.2944 16.98C62.7877 16.98 63.1944 16.8333 63.5144 16.54C63.8477 16.2467 64.0944 15.8867 64.2544 15.46V9H66.8544V15.96C66.8544 16.5067 66.881 17.0467 66.9344 17.58C66.9877 18.1 67.0677 18.5733 67.1744 19H65.2144L64.7544 17.52H64.6744C64.3677 18.0267 63.941 18.4467 63.3944 18.78C62.8477 19.1133 62.201 19.28 61.4544 19.28C60.9477 19.28 60.4944 19.2133 60.0944 19.08C59.6944 18.9467 59.361 18.7267 59.0944 18.42C58.8277 18.1133 58.621 17.7 58.4744 17.18C58.341 16.66 58.2744 16.0067 58.2744 15.22V9H60.8744Z" fill="#4F46E5"/>
</svg>
